<?xml version="1.0" standalone="no"?>
<!DOCTYPE svg PUBLIC "-//W3C//DTD SVG 20010904//EN"
 "http://www.w3.org/TR/2001/REC-SVG-20010904/DTD/svg10.dtd">
<svg version="1.0" xmlns="http://www.w3.org/2000/svg"
 width="640.000000pt" height="640.000000pt" viewBox="0 0 640.000000 640.000000"
 preserveAspectRatio="xMidYMid meet">
<metadata>
Created by potrace 1.16, written by Peter Selinger 2001-2019
</metadata>
<g transform="translate(0.000000,640.000000) scale(0.100000,-0.100000)"
fill="#000000" stroke="none">
<path d="M2920 3926 c-375 -59 -711 -297 -964 -683 -116 -176 -187 -355 -202
-503 l-7 -70 -36 6 c-187 31 -646 167 -827 246 l-82 35 -21 -45 c-12 -24 -21
-45 -19 -47 20 -15 233 -96 379 -143 206 -67 329 -100 493 -132 61 -11 112
-22 114 -25 2 -2 10 -35 18 -72 32 -158 147 -320 295 -418 353 -235 877 -257
1479 -63 174 56 339 130 815 363 564 276 718 347 825 375 53 14 213 40 253 40
26 0 27 -1 28 -62 1 -35 4 -89 8 -120 l6 -57 239 159 239 158 -239 119 c-131
66 -248 122 -258 126 -18 7 -19 3 -12 -106 l7 -113 -101 -12 c-210 -25 -292
-56 -795 -299 -761 -369 -873 -420 -1080 -488 -201 -66 -492 -115 -683 -115
-377 0 -701 132 -845 344 -39 58 -86 172 -87 210 0 16 5 18 38 12 20 -3 115
-11 210 -18 416 -29 815 41 1131 200 251 126 378 255 453 458 17 48 21 82 22
179 1 106 -2 129 -26 192 -62 172 -195 297 -373 353 -88 28 -271 35 -395 16z
m299 -97 c324 -55 492 -377 350 -674 -66 -139 -176 -237 -374 -335 -360 -178
-787 -235 -1297 -173 -47 5 -48 6 -48 40 0 51 28 174 56 250 47 124 148 288
261 425 282 340 702 526 1052 467z"/>
</g>
</svg>
