<?xml version="1.0" standalone="no"?>
<!DOCTYPE svg PUBLIC "-//W3C//DTD SVG 20010904//EN"
 "http://www.w3.org/TR/2001/REC-SVG-20010904/DTD/svg10.dtd">
<svg version="1.0" xmlns="http://www.w3.org/2000/svg"
 width="181.000000pt" height="139.000000pt" viewBox="0 0 181.000000 139.000000"
 preserveAspectRatio="xMidYMid meet">

<g transform="translate(0.000000,139.000000) scale(0.100000,-0.100000)"
fill="#000000" stroke="none">
<path d="M248 1053 c-16 -4 -18 -20 -18 -149 l0 -144 30 0 29 0 3 73 3 72 30
0 30 0 3 -72 3 -73 29 0 30 0 0 71 c0 39 -5 79 -10 90 -14 26 -68 52 -96 46
-23 -4 -24 -1 -24 44 0 50 -3 52 -42 42z"/>
<path d="M1391 1021 c-10 -6 -12 -32 -10 -106 4 -95 5 -97 37 -126 42 -37 82
-39 82 -4 0 14 -6 25 -13 25 -23 0 -46 34 -49 70 -3 33 -1 35 30 38 26 3 32 8
32 27 0 19 -6 24 -32 27 -28 2 -34 8 -36 31 -3 28 -16 33 -41 18z"/>
<path d="M54 936 c-38 -38 -44 -77 -19 -126 19 -37 43 -50 92 -50 38 0 83 22
83 40 0 19 -39 31 -61 19 -16 -8 -28 -8 -45 0 -34 15 -35 78 -1 90 12 5 32 5
45 0 24 -9 62 4 62 21 0 15 -56 40 -91 40 -22 0 -41 -10 -65 -34z"/>
<path d="M509 955 c-37 -20 -59 -73 -59 -139 0 -56 0 -56 30 -56 30 0 30 1 30
54 0 69 6 83 40 101 21 11 27 20 23 35 -6 23 -27 25 -64 5z"/>
<path d="M621 956 c-75 -42 -61 -172 21 -194 75 -20 138 28 138 104 0 37 -6
51 -29 75 -33 32 -87 39 -130 15z m100 -68 c23 -43 -22 -90 -67 -69 -17 8 -24
19 -24 40 0 54 66 75 91 29z"/>
<path d="M810 865 l0 -105 25 0 c24 0 25 3 25 58 0 64 16 96 46 90 16 -3 19
-13 22 -76 l3 -72 29 0 30 0 0 63 c0 65 11 87 41 87 23 0 29 -20 29 -91 0 -59
0 -59 30 -59 l30 0 0 60 c0 79 -19 123 -60 140 -25 11 -39 11 -65 1 -23 -8
-40 -8 -59 -1 -15 5 -50 10 -77 10 l-49 0 0 -105z"/>
<path d="M1171 944 c-39 -32 -49 -80 -26 -127 21 -45 50 -57 135 -57 l70 0 0
104 0 105 -75 0 c-65 0 -78 -3 -104 -25z m107 -46 c26 -26 0 -88 -36 -88 -40
0 -67 61 -40 88 15 15 61 15 76 0z"/>
<path d="M1522 962 c-9 -6 -12 -34 -10 -103 l3 -94 28 -3 27 -3 0 105 c0 94
-2 106 -17 106 -10 0 -24 -4 -31 -8z"/>
<path d="M1641 954 c-13 -9 -30 -32 -38 -51 -18 -43 -4 -93 34 -123 35 -27
102 -27 132 1 22 21 22 21 3 35 -15 11 -26 11 -51 1 -27 -10 -34 -9 -52 10
-42 41 1 106 55 82 19 -9 29 -8 46 4 l21 15 -27 21 c-32 25 -90 28 -123 5z"/>
<path d="M1048 594 c-1 -31 0 -58 5 -61 4 -2 7 23 7 56 0 76 -7 79 -12 5z"/>
<path d="M1350 640 c0 -5 5 -10 11 -10 5 0 7 5 4 10 -3 6 -8 10 -11 10 -2 0
-4 -4 -4 -10z"/>
<path d="M994 596 c-10 -27 1 -61 21 -64 19 -4 20 -3 1 11 -14 10 -17 21 -12
40 7 28 -1 37 -10 13z"/>
<path d="M1120 590 c-15 -27 4 -60 33 -59 22 0 22 0 -2 10 -19 7 -22 15 -19
39 5 35 3 37 -12 10z"/>
<path d="M1166 595 c4 -8 8 -15 10 -15 2 0 4 7 4 15 0 8 -4 15 -10 15 -5 0 -7
-7 -4 -15z"/>
<path d="M1234 598 c-4 -6 6 -21 22 -33 36 -29 45 -12 10 20 -16 14 -28 20
-32 13z"/>
<path d="M1275 600 c3 -5 8 -10 11 -10 2 0 4 5 4 10 0 6 -5 10 -11 10 -5 0 -7
-4 -4 -10z"/>
<path d="M1348 570 c2 -22 6 -40 8 -40 2 0 4 18 4 40 0 22 -3 40 -8 40 -4 0
-6 -18 -4 -40z"/>
<path d="M1422 598 c-24 -24 -7 -68 27 -68 11 0 11 3 -4 13 -12 10 -16 22 -13
40 6 31 6 31 -10 15z"/>
<path d="M1470 554 c0 -34 4 -53 10 -49 6 3 10 28 10 56 0 27 -4 49 -10 49 -5
0 -10 -25 -10 -56z"/>
<path d="M1550 571 c0 -23 3 -40 8 -38 9 6 8 64 -1 74 -4 3 -7 -13 -7 -36z"/>
<path d="M1608 568 c3 -31 7 -37 13 -25 10 17 2 67 -10 67 -4 0 -5 -19 -3 -42z"/>
<path d="M1230 540 c0 -5 5 -10 11 -10 5 0 7 5 4 10 -3 6 -8 10 -11 10 -2 0
-4 -4 -4 -10z"/>
</g>
</svg>
